<svg id="图层_1" xmlns:xlink="http://www.w3.org/1999/xlink" style="font-size: 32px;" xml:space="preserve" version="1.1" y="0px" x="0px" width="32" height="32" xmlns="http://www.w3.org/2000/svg" viewBox="0 0 256 256">
    <style type="text/css">
	.st0{fill:#3D7EFA;}
	.st1{fill:#0F5DCE;}
	.st2{fill:#FE564C;}
	.st3{fill:#CE2824;}
	.st4{fill:#FECD57;}
</style>
    <g transform="matrix(1,0,0,1,7.5000001e-06,-1.15e-06)">
        <g transform="matrix(2.4150943,0,0,2.4150943,-181.13208,-194.41509)">
            <g id="图层_1_1_">
                <polygon points="147,175 109,175 128,148 	" class="st0"></polygon>
                <path d="M147,178h-38c-1.7,0-3-1.3-3-3c0-0.6,0.2-1.2,0.5-1.7l19-27c1-1.4,2.8-1.7,4.2-0.7c0.3,0.2,0.5,0.4,0.7,0.7
		l19,27c1,1.4,0.6,3.2-0.7,4.2C148.2,177.8,147.6,178,147,178z M114.8,172h26.4L128,153.2L114.8,172z" class="st1"></path>
                <rect y="92" class="st2" x="78" width="100" height="69"></rect>
                <path d="M178,164H78c-1.7,0-3-1.3-3-3V92c0-1.7,1.3-3,3-3h100c1.7,0,3,1.3,3,3v69C181,162.7,179.7,164,178,164z
		 M81,158h94V95H81V158z" class="st3"></path>
                <polygon points="119,147 142.9,127 119,107 	" class="st4"></polygon>
                <path d="M119,150c-1.7,0-3-1.3-3-3v-40c0-1.7,1.3-3,3-3c0.7,0,1.4,0.2,1.9,0.7l23.9,20c1.3,1.1,1.4,3,0.4,4.2
		c-0.1,0.1-0.2,0.3-0.4,0.4l-23.9,20C120.4,149.8,119.7,150,119,150z M122,113.4v27.2l16.2-13.6L122,113.4z" class="st3"></path>
            </g>
        </g>
    </g>
</svg>
